<?xml version="1.0" encoding="UTF-8" standalone="no"?>
<!DOCTYPE svg PUBLIC "-//W3C//DTD SVG 1.1//EN" "http://www.w3.org/Graphics/SVG/1.1/DTD/svg11.dtd">
<svg version="1.1" xmlns="http://www.w3.org/2000/svg" xmlns:xlink="http://www.w3.org/1999/xlink" preserveAspectRatio="xMidYMid meet" viewBox="0 0 320 320" width="320" height="320"><defs><path d="M260 290C260 306.57 246.57 320 230 320C216 320 104 320 90 320C73.43 320 60 306.57 60 290C60 264 60 56 60 30C60 13.43 73.43 0 90 0C104 0 216 0 230 0C246.57 0 260 13.43 260 30C260 82 260 264 260 290ZM320 73.75C320 75.82 318.32 77.5 316.25 77.5C315.5 77.5 311.75 77.5 305 77.5C305 79.75 305 81 305 81.25C305 83.32 303.32 85 301.25 85C299.5 85 290.75 85 275 85L275 55C290.75 55 299.5 55 301.25 55C303.32 55 305 56.68 305 58.75C305 59 305 60.25 305 62.5C311.75 62.5 315.5 62.5 316.25 62.5C318.32 62.5 320 64.18 320 66.25C320 67.75 320 73 320 73.75ZM320 133.75C320 135.82 318.32 137.5 316.25 137.5C315.5 137.5 311.75 137.5 305 137.5C305 139.75 305 141 305 141.25C305 143.32 303.32 145 301.25 145C299.5 145 290.75 145 275 145L275 115C290.75 115 299.5 115 301.25 115C303.32 115 305 116.68 305 118.75C305 119 305 120.25 305 122.5C311.75 122.5 315.5 122.5 316.25 122.5C318.32 122.5 320 124.18 320 126.25C320 127.75 320 133 320 133.75ZM320 193.75C320 195.82 318.32 197.5 316.25 197.5C315.5 197.5 311.75 197.5 305 197.5C305 199.75 305 201 305 201.25C305 203.32 303.32 205 301.25 205C299.5 205 290.75 205 275 205L275 175C290.75 175 299.5 175 301.25 175C303.32 175 305 176.68 305 178.75C305 179 305 180.25 305 182.5C311.75 182.5 315.5 182.5 316.25 182.5C318.32 182.5 320 184.18 320 186.25C320 187.75 320 193 320 193.75ZM320 253.75C320 255.82 318.32 257.5 316.25 257.5C315.5 257.5 311.75 257.5 305 257.5C305 259.75 305 261 305 261.25C305 263.32 303.32 265 301.25 265C299.5 265 290.75 265 275 265L275 235C290.75 235 299.5 235 301.25 235C303.32 235 305 236.68 305 238.75C305 239 305 240.25 305 242.5C311.75 242.5 315.5 242.5 316.25 242.5C318.32 242.5 320 244.18 320 246.25C320 247.75 320 253 320 253.75ZM45 235L45 265C29.25 265 20.5 265 18.75 265C16.68 265 15 263.32 15 261.25C15 261 15 259.75 15 257.5C8.25 257.5 4.5 257.5 3.75 257.5C1.68 257.5 0 255.82 0 253.75C0 253 0 247 0 246.25C0 244.18 1.68 242.5 3.75 242.5C4.5 242.5 8.25 242.5 15 242.5C15 240.25 15 239 15 238.75C15 236.68 16.68 235 18.75 235C22.25 235 31 235 45 235ZM45 175L45 205C29.25 205 20.5 205 18.75 205C16.68 205 15 203.32 15 201.25C15 201 15 199.75 15 197.5C8.25 197.5 4.5 197.5 3.75 197.5C1.68 197.5 0 195.82 0 193.75C0 193 0 187 0 186.25C0 184.18 1.68 182.5 3.75 182.5C4.5 182.5 8.25 182.5 15 182.5C15 180.25 15 179 15 178.75C15 176.68 16.68 175 18.75 175C22.25 175 31 175 45 175ZM45 115L45 145C29.25 145 20.5 145 18.75 145C16.68 145 15 143.32 15 141.25C15 141 15 139.75 15 137.5C8.25 137.5 4.5 137.5 3.75 137.5C1.68 137.5 0 135.82 0 133.75C0 133 0 127 0 126.25C0 124.18 1.68 122.5 3.75 122.5C4.5 122.5 8.25 122.5 15 122.5C15 120.25 15 119 15 118.75C15 116.68 16.68 115 18.75 115C22.25 115 31 115 45 115ZM45 55L45 85C29.25 85 20.5 85 18.75 85C16.68 85 15 83.32 15 81.25C15 81 15 79.75 15 77.5C8.25 77.5 4.5 77.5 3.75 77.5C1.68 77.5 0 75.82 0 73.75C0 73 0 67 0 66.25C0 64.18 1.68 62.5 3.75 62.5C4.5 62.5 8.25 62.5 15 62.5C15 60.25 15 59 15 58.75C15 56.68 16.68 55 18.75 55C22.25 55 31 55 45 55Z" id="eRe8awyr4"></path><path d="M150.31 126.82C151.76 129.37 152.54 132.26 152.56 135.19C152.56 144.78 144.78 152.56 135.19 152.56C132.26 152.54 129.37 151.76 126.82 150.31C121.52 168.69 132.13 187.89 150.51 193.19C168.89 198.49 188.09 187.89 193.39 169.51C198.69 151.12 188.08 131.93 169.7 126.63C166.55 125.72 163.28 125.26 160 125.27C156.71 125.32 153.45 125.84 150.31 126.82ZM160 100.46C121.88 100.46 88.58 122.68 71.78 155.48C70.34 158.32 70.34 161.68 71.78 164.53C88.59 197.34 121.88 219.54 160 219.54C198.12 219.54 231.42 197.32 248.22 164.52C249.66 161.68 249.66 158.32 248.22 155.47C231.41 122.66 198.12 100.46 160 100.46ZM86.22 160C101.37 132.4 129.41 115.35 160 115.35C190.59 115.35 218.63 132.4 233.78 160C218.64 187.6 190.59 204.65 160 204.65C129.41 204.65 101.37 187.6 86.22 160Z" id="i4ZKDupBSu"></path></defs><g><g><g><use xlink:href="#eRe8awyr4" opacity="1" fill="#000000" fill-opacity="1"></use><g><use xlink:href="#eRe8awyr4" opacity="1" fill-opacity="0" stroke="#000000" stroke-width="1" stroke-opacity="0"></use></g></g><g><use xlink:href="#i4ZKDupBSu" opacity="1" fill="#ffffff" fill-opacity="1"></use><g><use xlink:href="#i4ZKDupBSu" opacity="1" fill-opacity="0" stroke="#000000" stroke-width="1" stroke-opacity="0"></use></g></g></g></g></svg>